<svg width="280" height="3" viewBox="0 0 280 3" fill="none" xmlns="http://www.w3.org/2000/svg">
<path d="M156.307 0.569681C162.466 0.769157 167.315 -0.112491 174.822 0.012125C182.329 0.136743 183.453 0.60441 192.051 0.499185C200.648 0.393981 209.25 0.71385 213.078 0.521707C216.906 0.329509 217.31 0.910596 222.746 0.781534C228.182 0.65249 231.476 0.728339 236.23 0.917215C240.984 1.10609 255.59 1.26734 260.901 1.03532C266.212 0.803292 272.27 1.20589 275.913 1.30137C277.047 1.33111 277.94 1.37182 278.625 1.41416C278.915 1.43212 279.049 1.46968 279.049 1.50676C279.049 1.50678 279.049 1.50681 279.049 1.50683C279.049 1.553 278.841 1.59839 278.469 1.60423C276.659 1.63254 273.955 1.70725 270.76 1.87467C264.804 2.18686 264.153 1.84188 256.11 2.0023C248.066 2.16272 243.234 2.48343 233.77 2.27604C224.306 2.06867 222.132 2.9365 208.773 2.44468C195.414 1.9529 194.008 2.86049 180.696 2.98118C167.383 3.10186 150.578 2.60109 142.553 2.64262C134.528 2.68414 123.75 2.78986 112.374 2.67008C100.997 2.55031 86.953 2.85266 74.3951 2.63896C61.8374 2.42525 44.0834 2.15533 35.8812 1.97447C27.6794 1.7936 25.6803 1.75281 17.7857 1.86332C13.2477 1.92685 6.99628 1.86697 1.71585 1.63334C-0.9416 1.51576 -0.33942 1.35205 2.3354 1.27372C6.24684 1.15918 9.45772 1.2357 11.4731 1.03111C15.5003 0.622214 17.2119 0.465357 22.296 0.703348C27.3798 0.941309 29.7752 0.400502 32.7388 0.462747C35.7024 0.525023 35.6537 0.844014 50.7226 0.598245C65.7917 0.352468 74.0526 0.289756 79.7591 0.230753C85.4657 0.171749 97.3814 0.448601 106.682 0.348673C115.982 0.248751 134.889 0.34033 142.511 0.176737C150.132 0.0131564 150.148 0.370205 156.307 0.569681Z" fill="#F9F9DC"/>
</svg>
